<svg xmlns="http://www.w3.org/2000/svg" width="517.013" height="148.219" viewBox="0 0 517.013 148.219"><g fill="#034b85"><path d="M176.868 68.33V5.727h22.985c4.942 0 8.166.76 10.833 1.994 6.36 3.043 9.217 8.836 9.217 14.154 0 5.99-2.48 10.067-7.51 13.116v.188c7.217 1.607 11.59 6.64 11.59 14.247 0 8.453-5.126 14.914-13.867 17.58-3.14.946-6.555 1.327-11.973 1.327h-21.275m28.126-51.876c-1.433-.66-3.143-1.04-5.895-1.04h-11.493v16.34h10.827c3.417 0 5.51-.572 7.026-1.432 2.474-1.414 3.708-3.796 3.708-6.834 0-3.137-1.427-5.696-4.174-7.034m3.317 25.935c-1.517-.658-3.415-1.038-7.124-1.038h-13.58v17.286h12.822c3.892 0 6.177-.476 7.982-1.324 3.044-1.515 4.56-4.188 4.56-7.79 0-3.236-1.714-5.8-4.66-7.133zM286.626 5.727h10.734V68.33h-10.734zM364.562 5.727h10.725V68.33h-10.725zM409.958 5.16c6.748 0 13.59 1.618 17.377 3.515l-.18 10.258c-5.417-2.658-10.93-4.375-17.48-4.375-5.88 0-10.923 1.814-10.923 6.753 0 12.824 32.21 7.695 32.21 28.873 0 11.688-9.885 19.085-24.238 19.085-9.772 0-16.52-2.754-21.175-5.588l4.457-8.743c3.807 2.376 9.895 4.94 17.104 4.94 6.466 0 12.45-2.48 12.45-8.167 0-13.408-31.918-7.512-31.918-28.882 0-11.405 9.112-17.668 22.316-17.668zM481.777 68.33V41.352h-30.402V68.33h-10.733V5.727h10.733v25.65h30.402V5.728h10.733V68.33zM200.57 79.326c6.837 0 12.057 1.338 17.387 3.704l-3.237 9.122c-3.04-1.418-7.035-3.128-13.005-3.128-11.88 0-19.282 10.064-19.282 22.316 0 12.36 6.926 22.42 19.282 22.42 5.97 0 9.965-1.702 13.005-3.14l3.237 9.133c-5.33 2.365-10.55 3.694-17.387 3.694-18.72 0-29.445-13.104-29.445-31.914 0-17.572 10.724-32.207 29.445-32.207zM435.44 79.326c6.84 0 12.062 1.338 17.376 3.704l-3.223 9.122c-3.044-1.418-7.04-3.128-13.024-3.128-11.876 0-19.283 10.064-19.283 22.316 0 12.36 6.937 22.42 19.282 22.42 5.984 0 9.98-1.702 13.023-3.14l3.223 9.133c-5.314 2.365-10.536 3.694-17.377 3.694-18.726 0-29.46-13.104-29.46-31.914 0-17.572 10.734-32.207 29.46-32.207zM279.313 111.14c0 18.82-11.977 32.306-29.64 32.306-17.854 0-29.634-13.014-29.634-31.815 0-18.81 11.963-32.304 29.632-32.304 17.87 0 29.64 13.024 29.64 31.815m-11.308.2c0-13.675-7.78-22.416-18.332-22.416-10.54 0-18.333 8.74-18.333 22.51 0 13.692 7.792 22.42 18.332 22.42 10.55 0 18.332-8.73 18.332-22.515zM286.57 118.934V79.9h10.734v39.42c0 10.442 5.607 14.343 14.53 14.343 9.124 0 14.543-3.9 14.543-14.343V79.9h10.734v39.034c0 17.01-9.696 24.512-25.453 24.512-15.493 0-25.087-7.5-25.087-24.512zM357.287 96.91h-.188c.187 2.084.28 5.41.28 8.36v37.225h-10.733v-62.59h11.592l29.053 42.648h.198c-.197-2.092-.28-5.418-.28-8.368v-34.28h10.723v62.59h-9.49L357.287 96.91zM461.252 79.9h10.715v62.604h-10.715zM481.777 142.503V79.9h10.733v52.907h24.503v9.696zM426.327 8.277"/><path d="M356.354 5.74H305.54v9.783h20.035V68.33h10.735V15.523h20.044zM267.308 68.33c-9.11-18.895-11.49-24.22-15.29-24.22h-9.97v24.22H231.32V5.74h21.176c16.14 0 22.322 8.55 22.322 18.043 0 8.36-4.843 13.967-11.59 16.044v.102c2.844 1.617 5.88 7.507 16.33 28.4h-12.25zm-14.144-52.906H242.05v19.003h10.634c7.7 0 11.306-3.99 11.306-9.692 0-5.13-3.324-9.31-10.826-9.31z"/></g><path fill="#11a2e5" d="M71.603 35.804c0 19.77-16.03 35.804-35.8 35.804C16.03 71.608 0 55.575 0 35.804 0 16.03 16.03 0 35.8 0c19.773 0 35.803 16.03 35.803 35.804zM148.22 35.804c0 19.77-16.03 35.804-35.802 35.804-19.77 0-35.8-16.033-35.8-35.804C76.617 16.03 92.647 0 112.417 0c19.772 0 35.8 16.03 35.8 35.804zM71.603 112.418c0 19.776-16.03 35.8-35.8 35.8C16.03 148.22 0 132.195 0 112.42s16.03-35.8 35.8-35.8c19.773 0 35.803 16.024 35.803 35.8zM148.22 112.418c0 19.776-16.03 35.8-35.802 35.8-19.77 0-35.8-16.024-35.8-35.8s16.03-35.8 35.8-35.8c19.772 0 35.8 16.024 35.8 35.8z"/></svg>